<?xml version="1.0" encoding="utf-8"?>
<!-- Generator: Adobe Illustrator 24.1.1, SVG Export Plug-In . SVG Version: 6.00 Build 0)  -->
<svg version="1.1" id="Layer_1" xmlns="http://www.w3.org/2000/svg" xmlns:xlink="http://www.w3.org/1999/xlink" x="0px" y="0px"
	 viewBox="0 0 512 512" style="enable-background:new 0 0 512 512;" xml:space="preserve">
<g>
	<polygon points="204.8,311.5 204.8,345.6 324.3,345.6 324.3,311.5 281.6,311.5 281.6,166.4 247.5,166.4 247.5,192 213.3,192 
		213.3,226.1 247.5,226.1 247.5,311.5 	"/>
	<path d="M477.9,203.2v57c-0.1,65.9-53.5,119.4-119.5,119.5H66.8l47.6-47.7l-24.1-24.1L2.1,396.1L81.1,485l25.6-22.7l-43.1-48.4
		h294.8c84.7,0,153.6-68.9,153.6-153.6v-91.2L477.9,203.2z"/>
	<path d="M34.1,251.7c0.1-65.9,53.5-119.4,119.5-119.5h291.6l-47.6,47.7l24.1,24.1l88.2-88.2L430.9,27l-25.6,22.7l43.1,48.4H153.6
		C68.9,98.1,0,167,0,251.7v91.5l34.1-34.1V251.7z"/>
</g>
</svg>
