<?xml version="1.0" encoding="utf-8"?>
<!-- Generator: Adobe Illustrator 21.0.0, SVG Export Plug-In . SVG Version: 6.00 Build 0)  -->
<svg version="1.1" id="Layer_1" xmlns="http://www.w3.org/2000/svg" xmlns:xlink="http://www.w3.org/1999/xlink" x="0px" y="0px"
	 viewBox="0 0 512 512" style="enable-background:new 0 0 512 512;" xml:space="preserve">
<g>
	<path d="M447.1,301.2c-7.7-7.7-20.2-7.7-27.8,0c-7.7,7.6-7.7,20.1,0,27.8l25.4,25.4h-57.3c-26.3,0-50.9-13.2-65.5-35.1l-99.1-148.6
		c-21.9-32.9-58.8-52.6-98.3-52.6H19.7C8.8,118.2,0,127,0,137.8c0,10.9,8.8,19.7,19.7,19.7h104.8c26.3,0,50.9,13.2,65.5,35.1
		l42.3,63.4L190,319.4c-14.6,21.9-39.2,35.1-65.5,35.1H19.7C8.8,354.5,0,363.3,0,374.2s8.8,19.6,19.7,19.6h104.8
		c39.5,0,76.4-19.7,98.3-52.6l33.1-49.7l33.2,49.7c21.9,32.9,58.8,52.6,98.3,52.6h57.5l-25.6,25.6c-7.7,7.7-7.7,20.2,0,27.8
		c7.7,7.7,20.2,7.7,27.8,0l59.1-59.1c3.7-3.7,5.8-8.7,5.8-13.9c0-5.2-2.1-10.3-5.8-13.9L447.1,301.2z"/>
	<path d="M284.5,213.3c9.1,6,21.3,3.6,27.3-5.5l10.2-15.2c14.6-21.9,39.2-35.1,65.5-35.1h57.4L419.3,183c-7.7,7.7-7.7,20.2,0,27.8
		c7.7,7.7,20.2,7.7,27.8,0l59.1-59.1c3.7-3.7,5.8-8.7,5.8-13.9c0-5.2-2.1-10.3-5.8-13.9l-59.1-59.1c-7.7-7.7-20.2-7.7-27.8,0
		c-7.7,7.7-7.7,20.2,0,27.9l25.5,25.5h-57.4c-39.5,0-76.4,19.7-98.3,52.6L279,186C273,195.1,275.4,207.3,284.5,213.3z"/>
</g>
</svg>
